<?xml version="1.0" encoding="UTF-8"?><svg id="a" xmlns="http://www.w3.org/2000/svg" viewBox="0 0 96 96"><defs><style>.d{fill:#fff;}.e{fill:#e83f48;}</style></defs><rect class="e" width="96" height="96"/><path id="b" class="d" d="M24.43,67.92V14.18c.05-2.48,2.09-4.46,4.58-4.42,2.48-.04,4.53,1.94,4.58,4.42V30.36c4.36-3.36,9.72-5.17,15.22-5.15,13.46,0,24.37,10.53,24.38,23.52v.02c0,13-10.92,23.53-24.38,23.53-5.51,.02-10.86-1.8-15.22-5.16v.81c-.04,2.48-2.09,4.46-4.58,4.42-2.48,.04-4.53-1.94-4.58-4.42Zm9.16-19.45v.53c.3,8.16,7.06,14.57,15.22,14.44,8.26,.14,15.08-6.44,15.23-14.7-.15-8.27-6.96-14.85-15.23-14.71-8.16-.14-14.93,6.28-15.22,14.44Z"/><path id="c" class="d" d="M48.81,87.73c-2.43,.14-4.52-1.73-4.65-4.16-.14-2.43,1.73-4.52,4.16-4.65,.33-.04,.67-.04,1,0,6.83-.14,12.72-4.84,14.36-11.48-8.84,6.5-20.88,6.5-29.72,0-3.74-2.76-6.59-6.57-8.18-10.94-.89-2.48-1.35-5.09-1.34-7.72,0-13,10.92-23.53,24.38-23.53,5.51-.02,10.86,1.79,15.22,5.15v-.8c.1-2.53,2.22-4.5,4.75-4.4,2.39,.09,4.31,2.01,4.4,4.4v34.63c-.03,7.22-3.41,14.01-9.16,18.38-4.36,3.36-9.72,5.17-15.22,5.15v-.04Zm-14.86-42.16c-.87,3.75-.19,7.7,1.89,10.94,4.72,7.16,14.34,9.14,21.5,4.42,1.76-1.16,3.26-2.66,4.42-4.42,1.43-2.23,2.21-4.81,2.26-7.45v-.53c-.02-.99-.14-1.98-.36-2.95-2.14-8.21-10.53-13.13-18.73-10.99-5.38,1.4-9.58,5.61-10.99,10.99h0Z"/></svg>